<svg width="133" height="48" viewBox="0 0 133 48" fill="none" xmlns="http://www.w3.org/2000/svg">
<g clip-path="url(#clip0_1539_200)">
<path d="M105.4 39.9963C105.082 39.9225 104.295 39.7624 103.609 39.6025C102.325 39.3069 101.907 38.8887 101.907 38.2604C101.907 37.3746 102.656 36.845 104.078 36.845C104.866 36.845 105.629 37.0418 106.263 37.3746C106.708 37.5963 106.886 37.7436 107.14 37.7436C107.407 37.7436 107.56 37.5835 107.991 37.0418C108.449 36.4754 108.55 36.3281 108.55 36.1065C108.55 35.8848 108.423 35.7125 108.068 35.4172C107.216 34.765 105.705 34.3093 104.218 34.3093C101.322 34.3093 99.1371 35.7985 99.1371 38.3098C99.1371 40.3532 100.636 41.498 102.707 41.9903C103.558 42.1876 103.888 42.2611 104.663 42.4338C105.883 42.7293 106.34 43.1597 106.34 43.8247C106.34 44.6989 105.603 45.3513 104.104 45.3513C102.732 45.3513 101.728 44.9695 100.902 44.4277C100.598 44.2432 100.369 44.0709 100.141 44.0709C99.8483 44.0709 99.6958 44.2432 99.2386 44.8218C98.7689 45.4007 98.7048 45.5234 98.7048 45.708C98.7048 45.9914 98.9336 46.1759 99.2639 46.4095C100.42 47.2591 101.907 47.8502 104.078 47.8502C106.949 47.8502 109.147 46.2988 109.147 43.7631C109.147 41.7813 107.94 40.6116 105.4 39.9963V39.9963ZM69.1993 29.7669C67.6375 29.7669 67.6375 29.7669 67.6375 31.2813C67.6375 32.8443 67.6375 32.8443 69.1993 32.8443C70.7751 32.8443 70.7751 32.8443 70.7751 31.2813C70.7751 29.7669 70.7751 29.7669 69.1993 29.7669ZM94.8728 34.5433C93.4499 34.5433 93.4499 34.5433 93.4499 35.9709V46.2866C93.4499 47.6162 93.4499 47.6162 94.8728 47.6162C96.334 47.6162 96.334 47.6162 96.334 46.2866V35.9709C96.334 34.5433 96.334 34.5433 94.8728 34.5433V34.5433ZM94.8728 29.7669C93.3105 29.7669 93.3105 29.7669 93.3105 31.2813C93.3105 32.8443 93.3105 32.8443 94.8728 32.8443C96.4482 32.8443 96.4482 32.8443 96.4482 31.2813C96.4482 29.7669 96.4482 29.7669 94.8728 29.7669ZM81.3859 44.7355C80.8394 45.1296 79.7343 45.5481 78.5655 45.5481C76.8633 45.5481 75.8849 44.8712 75.8849 43.5908C75.8849 42.5198 76.736 41.6584 78.5528 41.6584C79.5438 41.6584 80.357 41.8182 81.3859 42.1137V44.7355ZM78.7054 34.3093C77.3457 34.3093 75.9996 34.6293 74.9576 35.0478C74.2969 35.294 74.1318 35.4785 74.1318 35.7125C74.1318 35.897 74.2333 36.1804 74.4752 36.7099C74.8303 37.473 74.9702 37.5713 75.2117 37.5835C75.4021 37.5963 75.7324 37.473 76.0754 37.3618C76.7997 37.1039 77.7018 36.845 78.7054 36.845C80.6232 36.845 81.3859 37.5963 81.3859 39.1468V40.0826C80.3313 39.7992 79.366 39.6519 78.1973 39.6519C74.7035 39.6519 73.1412 41.498 73.1412 43.6524C73.1412 46.0032 74.8177 47.8502 78.3619 47.8502C81.1314 47.8502 82.9356 46.9762 83.6346 46.5083C84.0791 46.2127 84.1675 46.0282 84.1675 45.4868V39.1468C84.1675 35.7863 82.2496 34.3093 78.7054 34.3093ZM88.7369 30.0258C87.3014 30.0258 87.3014 30.0258 87.3014 31.4906V46.2866C87.3014 47.6162 87.2888 47.6162 88.7369 47.6162C90.1724 47.6162 90.1724 47.6162 90.1724 46.2866V31.4906C90.1724 30.0258 90.1597 30.0258 88.7369 30.0258ZM69.1993 34.5433C67.7769 34.5433 67.7769 34.5433 67.7769 35.9709V46.2866C67.7769 47.6162 67.7769 47.6162 69.1993 47.6162C70.6605 47.6162 70.6605 47.6162 70.6605 46.2866V35.9709C70.6605 34.5433 70.6605 34.5433 69.1993 34.5433V34.5433ZM13.2055 34.3093C11.5033 34.3093 10.0932 34.9617 9.0259 35.7002C8.13673 34.8261 7.01871 34.3093 5.32903 34.3093C3.4869 34.3093 1.5563 35.0723 0.717755 35.6508C0.336707 35.922 0.184082 36.1804 0.184082 36.7221V46.2375C0.184082 47.6162 0.184082 47.6162 1.61975 47.6162C3.068 47.6162 3.068 47.6162 3.068 46.2375V37.7681C3.57608 37.4606 4.56707 37.0668 5.39261 37.0668C7.03153 37.0668 7.81908 37.8297 7.81908 39.5162V46.2375C7.81908 47.6162 7.81908 47.6162 9.2547 47.6162C10.6902 47.6162 10.6902 47.6162 10.6902 46.2375V39.4424C10.6902 38.8887 10.6646 38.4083 10.5886 37.9653C11.1729 37.4975 12.0238 37.0668 13.0528 37.0668C14.7045 37.0668 15.4413 37.9163 15.4413 39.5408V46.2375C15.4413 47.6162 15.4413 47.6162 16.8641 47.6162C18.3124 47.6162 18.3124 47.6162 18.3124 46.2375V39.3813C18.3124 36.1926 16.8131 34.3093 13.2055 34.3093V34.3093ZM28.9235 44.7355C28.3773 45.1296 27.2721 45.5481 26.1031 45.5481C24.4009 45.5481 23.4228 44.8712 23.4228 43.5908C23.4228 42.5198 24.2738 41.6584 26.0907 41.6584C27.0816 41.6584 27.8946 41.8182 28.9235 42.1137V44.7355ZM26.2431 34.3093C24.8837 34.3093 23.5372 34.6293 22.4954 35.0478C21.8347 35.294 21.6696 35.4785 21.6696 35.7125C21.6696 35.897 21.7713 36.1804 22.0127 36.7099C22.3684 37.473 22.5082 37.5713 22.7492 37.5835C22.9399 37.5963 23.2701 37.473 23.6134 37.3618C24.3375 37.1039 25.2395 36.845 26.2431 36.845C28.1612 36.845 28.9235 37.5963 28.9235 39.1468V40.0826C27.869 39.7992 26.9038 39.6519 25.7348 39.6519C22.2412 39.6519 20.6788 41.498 20.6788 43.6524C20.6788 46.0032 22.3556 47.8502 25.8998 47.8502C28.6693 47.8502 30.4731 46.9762 31.1722 46.5083C31.6167 46.2127 31.7056 46.0282 31.7056 45.4868V39.1468C31.7056 35.7863 29.7872 34.3093 26.2431 34.3093V34.3093ZM119.97 39.7992C119.957 40.1192 119.97 40.1192 119.652 40.1192H113.833C113.796 38.0142 114.812 36.6972 116.959 36.6972C118.864 36.6972 120.059 37.9163 119.97 39.7992ZM116.934 34.3093C113.694 34.3093 111.356 36.2911 111.09 39.4796C111.026 40.2549 111.014 41.6336 111.077 42.5689C111.331 45.6713 113.504 47.8502 117.162 47.8502C118.788 47.8502 120.313 47.4192 121.164 47.0251C121.761 46.7545 121.9 46.5822 121.9 46.3727C121.9 46.2127 121.837 45.9914 121.596 45.4986C121.252 44.76 121.1 44.526 120.795 44.526C120.579 44.526 120.3 44.6617 119.894 44.8218C119.08 45.154 118.191 45.3264 117.149 45.3264C115.218 45.3264 113.833 44.3293 113.833 42.4582V42.1504H121.037C122.434 42.1504 122.625 42.0153 122.625 40.5383V39.8486C122.625 36.5126 120.363 34.3093 116.934 34.3093V34.3093ZM52.9514 39.7992C52.9388 40.1192 52.9514 40.1192 52.6337 40.1192H46.8155C46.7776 38.0142 47.7939 36.6972 49.941 36.6972C51.8463 36.6972 53.0403 37.9163 52.9514 39.7992ZM49.9153 34.3093C46.6761 34.3093 44.3385 36.2911 44.0714 39.4796C44.0082 40.2549 43.9956 41.6336 44.0587 42.5689C44.3133 45.6713 46.4857 47.8502 50.1441 47.8502C51.77 47.8502 53.2948 47.4192 54.1455 47.0251C54.743 46.7545 54.8824 46.5822 54.8824 46.3727C54.8824 46.2127 54.8192 45.9914 54.5778 45.4986C54.2344 44.76 54.0823 44.526 53.7772 44.526C53.5615 44.526 53.2822 44.6617 52.8756 44.8218C52.0624 45.154 51.173 45.3264 50.1315 45.3264C48.2005 45.3264 46.8155 44.3293 46.8155 42.4582V42.1504H54.0187C55.4163 42.1504 55.6067 42.0153 55.6067 40.5383V39.8486C55.6067 36.5126 53.3454 34.3093 49.9153 34.3093V34.3093ZM41.8059 44.7727C41.6407 44.7727 41.3735 44.834 41.0816 44.9201C40.5861 45.0805 40.0148 45.2279 39.3537 45.2279C38.1091 45.2279 37.5373 44.5138 37.5373 43.2957V37.1162H40.8911C42.2756 37.1162 42.2756 37.1162 42.2756 35.8604C42.2756 34.5799 42.2756 34.5433 40.8911 34.5433H37.5373V32.9056C37.5373 31.4412 37.5373 31.4412 36.0892 31.4412C34.6537 31.4412 34.6664 31.4412 34.6664 32.9056V43.2957C34.6664 45.8803 35.9872 47.8502 38.9728 47.8502C40.0906 47.8502 41.0942 47.6653 42.1105 47.2468C42.5807 47.0501 42.7964 46.8896 42.7964 46.6438C42.7964 46.545 42.7964 46.4221 42.5297 45.7202C42.263 45.0186 42.1615 44.7727 41.8059 44.7727V44.7727ZM65.0131 34.6171C64.3145 34.4325 63.3872 34.3093 62.5356 34.3093C59.703 34.3093 58.1913 35.8848 58.1913 38.3961V46.311C58.1913 47.6162 58.1913 47.6162 59.652 47.6162C61.0749 47.6162 61.0749 47.6162 61.0749 46.311V38.8762C61.0749 37.5713 61.685 37.0668 62.8407 37.0668C63.4125 37.0668 63.7938 37.1284 64.1241 37.2022C64.5433 37.3007 64.8353 37.3496 64.9874 37.3496C65.3813 37.3496 65.5086 37.1284 65.7374 36.3771C65.9662 35.6631 65.991 35.4541 65.991 35.3312C65.991 34.9371 65.5718 34.765 65.0131 34.6171" fill="#151118"/>
<path d="M44.0176 27.2793L75.3474 17.7071H44.0176V27.2793ZM75.3474 17.7071H132.814V0.149621L75.3474 17.7071" fill="url(#paint0_linear_1539_200)"/>
</g>
<defs>
<linearGradient id="paint0_linear_1539_200" x1="45.199" y1="30.9107" x2="133.244" y2="2.26176" gradientUnits="userSpaceOnUse">
<stop stop-color="#295CB3"/>
<stop offset="0.00030602" stop-color="#295CB3"/>
<stop offset="1" stop-color="#3CBBF0"/>
</linearGradient>
<clipPath id="clip0_1539_200">
<rect width="133" height="48" fill="white"/>
</clipPath>
</defs>
</svg>
